<svg width="16" height="16" viewBox="0 0 16 16" fill="none" xmlns="http://www.w3.org/2000/svg">
    <path
        d="M5.31494 2.54797V3.09594H12.6304C12.7948 3.09594 12.9043 3.20554 12.9043 3.36993V10.6853C12.9043 10.8497 12.7948 10.9593 12.6304 10.9593H5.31494C5.15055 10.9593 5.04095 10.8497 5.04095 10.6853V3.36993C5.04095 3.20554 5.15055 3.09594 5.31494 3.09594V2.54797V2C4.54778 2 3.94501 2.60277 3.94501 3.36993V10.6853C3.94501 11.4525 4.54778 12.0553 5.31494 12.0553H12.6304C13.3975 12.0553 14.0003 11.4525 14.0003 10.6853V3.36993C14.0003 2.60277 13.3975 2 12.6304 2H5.31494V2.54797Z"
        fill="#34D399" />
    <path
        d="M10.7675 12.9322H3.28769C3.1781 12.9322 3.0959 12.85 3.0959 12.7404V5.23315C3.0959 4.93177 2.84931 4.68518 2.54793 4.68518C2.24655 4.68518 1.99996 4.93177 1.99996 5.23315V12.713C1.99996 13.4253 2.57533 14.0007 3.28769 14.0007H10.7675C11.0689 14.0007 11.3155 13.7541 11.3155 13.4527C11.3155 13.1787 11.0689 12.9322 10.7675 12.9322Z"
        fill="#34D399" />
</svg>