<svg width="17" height="13" viewBox="0 0 17 13" fill="none" xmlns="http://www.w3.org/2000/svg">
    <path
        d="M5.77734 12.7277L0.232422 7.07853C0.077474 6.91972 0 6.71553 0 6.46597C0 6.2164 0.077474 6.01222 0.232422 5.8534L1.46094 4.62827C1.61589 4.44677 1.80404 4.35602 2.02539 4.35602C2.26888 4.35602 2.47917 4.44677 2.65625 4.62827L6.375 8.43979L14.3438 0.272251C14.5208 0.0907504 14.7201 0 14.9414 0C15.1849 0 15.3841 0.0907504 15.5391 0.272251L16.7676 1.49738C16.9225 1.6562 17 1.86038 17 2.10995C17 2.35951 16.9225 2.5637 16.7676 2.72251L6.97266 12.7277C6.81771 12.9092 6.61849 13 6.375 13C6.13151 13 5.93229 12.9092 5.77734 12.7277Z"
        fill="#32D583" />
</svg>