<svg width="25" height="24" viewBox="0 0 25 24" fill="none" xmlns="http://www.w3.org/2000/svg">
<path fill-rule="evenodd" clip-rule="evenodd" d="M12.6666 20.5C17.361 20.5 21.1666 16.6944 21.1666 12C21.1666 7.30558 17.361 3.5 12.6666 3.5C7.97221 3.5 4.16663 7.30558 4.16663 12C4.16663 16.6944 7.9722 20.5 12.6666 20.5ZM12.6666 22C18.1895 22 22.6666 17.5228 22.6666 12C22.6666 6.47715 18.1895 2 12.6666 2C7.14378 2 2.66663 6.47715 2.66663 12C2.66663 17.5228 7.14378 22 12.6666 22ZM12.6662 9.39792C13.4092 9.39792 14.0115 8.79558 14.0115 8.05255C14.0115 7.30953 13.4092 6.70718 12.6662 6.70718C11.9231 6.70718 11.3208 7.30953 11.3208 8.05255C11.3208 8.79558 11.9231 9.39792 12.6662 9.39792ZM13.7857 16.1743L13.7857 11.74C13.7857 11.4431 13.6678 11.1584 13.4578 10.9485C13.2479 10.7385 12.9632 10.6206 12.6663 10.6206C12.3695 10.6206 12.0848 10.7385 11.8748 10.9485C11.6649 11.1584 11.547 11.4431 11.547 11.74L11.547 16.1743C11.547 16.4712 11.6649 16.7559 11.8748 16.9658C12.0848 17.1757 12.3695 17.2936 12.6663 17.2936C12.9632 17.2936 13.2479 17.1757 13.4578 16.9658C13.6678 16.7559 13.7857 16.4712 13.7857 16.1743Z" fill="white"/>
</svg>
