<svg width="44" height="44" viewBox="0 0 44 44" fill="none" xmlns="http://www.w3.org/2000/svg">
    <rect width="44" height="44" rx="22" fill="black" />
    <path fill-rule="evenodd" clip-rule="evenodd"
        d="M16 20V18C16 14.6863 18.6863 12 22 12C25.3137 12 28 14.6863 28 18V20H29C29.5523 20 30 20.4477 30 21V31C30 31.5523 29.5523 32 29 32H15C14.4477 32 14 31.5523 14 31V21C14 20.4477 14.4477 20 15 20H16ZM18 20H26V18C26 15.7909 24.2091 14 22 14C19.7909 14 18 15.7909 18 18V20Z"
        fill="white" />
</svg>