<svg width="42" height="42" viewBox="0 0 42 42" fill="none" xmlns="http://www.w3.org/2000/svg">
<g clip-path="url(#clip0_740_29811)">
<rect width="42" height="42" rx="8" fill="black"/>
<rect width="42.054" height="42.054" fill="black"/>
<path d="M13.7025 29H28.2975C30.0872 29 31 28.0771 31 26.2678V15.723C31 13.9229 30.0872 13 28.2975 13H13.7025C11.9128 13 11 13.9138 11 15.723V26.2678C11 28.0771 11.9128 29 13.7025 29ZM12.4765 15.8235C12.4765 14.9463 12.9329 14.5077 13.7562 14.5077H28.2438C29.0582 14.5077 29.5235 14.9463 29.5235 15.8235V17.1119H12.4765V15.8235ZM13.7562 27.4923C12.9329 27.4923 12.4765 27.0445 12.4765 26.1673V19.0948H29.5235V26.1673C29.5235 27.0445 29.0582 27.4923 28.2438 27.4923H13.7562Z" fill="white"/>
</g>
<defs>
<clipPath id="clip0_740_29811">
<rect width="42" height="42" rx="8" fill="white"/>
</clipPath>
</defs>
</svg>
