<svg version="1.1" id="_x35_" xmlns="http://www.w3.org/2000/svg"
	xmlns:xlink="http://www.w3.org/1999/xlink"
	viewBox="0 0 512 512" xml:space="preserve">
<g>
	<g>
		<path style="fill:#493A35;" d="M56.189,140.714c-13.165,0-25.326-7.023-31.903-18.425L4.937,88.782
			c-6.583-11.408-6.583-25.448,0-36.844l19.35-33.514C30.863,7.023,43.024,0,56.189,0h38.7c13.165,0,25.326,7.023,31.908,18.425
			l19.35,33.514c6.576,11.396,6.576,25.436,0,36.844l-19.35,33.507c-6.583,11.402-18.743,18.425-31.908,18.425H56.189z"/>
		<path style="fill:#493A35;" d="M417.117,140.714c-13.165,0-25.332-7.023-31.915-18.425l-19.35-33.507
			c-6.576-11.408-6.576-25.448,0-36.844l19.35-33.514C391.785,7.023,403.952,0,417.117,0h38.693
			c13.165,0,25.326,7.023,31.903,18.425l19.349,33.514c6.583,11.396,6.583,25.436,0,36.844l-19.349,33.507
			c-6.576,11.402-18.738,18.425-31.903,18.425H417.117z"/>
	</g>
	<g>
		<path style="fill:#FFFFFF;" d="M245.229,39.581h-76.634c-15.559,0-30.084,7.764-38.705,20.709L46.9,184.778
			c-5.095,7.642-7.813,16.613-7.813,25.804v117.274c0,15.92,8.138,30.727,21.572,39.263l65.471,41.602
			c7.452,4.739,16.104,7.256,24.934,7.256h94.165h9.314V39.581H245.229z"/>
		<path style="fill:#ECECEB;" d="M465.1,184.778L382.11,60.29c-8.622-12.944-23.152-20.709-38.705-20.709h-76.634h-12.228v376.396
			h12.228h94.159c8.836,0,17.494-2.517,24.94-7.256l65.471-41.602c13.435-8.536,21.579-23.342,21.579-39.263V210.582
			C472.919,201.39,470.195,192.42,465.1,184.778z"/>
	</g>
	<g>
		<path style="fill:#EBF0F0;" d="M256,296.284v-90.748h-35.521c-16.117,0-30.476,9.442-35.797,23.532l-28.302,74.938
			c-2.866,7.586-2.835,15.853,0.08,23.422l16.227,42.11c5.389,13.98,19.686,23.318,35.724,23.318H256v-25.161V296.284z"/>
		<path style="fill:#E3E2E2;" d="M355.615,304.006l-28.296-74.938c-5.327-14.09-19.68-23.532-35.797-23.532H256v90.748v71.411
			v25.161h47.597c16.025,0,30.317-9.338,35.711-23.318l16.221-42.11C358.456,319.859,358.481,311.592,355.615,304.006z"/>
		<path style="fill:#4D4441;" d="M264.089,351.29c19.718,0,35.712-15.994,35.712-35.718c0-19.723-15.994-35.711-35.712-35.711H256
			v71.429H264.089z"/>
		<path style="fill:#4D4441;" d="M212.199,315.573c0,19.723,15.982,35.718,35.712,35.718H256v-71.429h-8.089
			C228.182,279.861,212.199,295.849,212.199,315.573z"/>
	</g>
	<g>
		<path style="fill:#493A35;" d="M141.016,142.741c2.621-6.674,9.056-11.065,16.239-11.065h40.683c4.917,0,9.608,2.082,12.921,5.719
			c3.3,3.649,4.923,8.524,4.446,13.416l-7.893,81.257c-0.331,3.429-1.672,6.675-3.852,9.338l-32.448,39.759
			c-3.313,4.06-8.279,6.411-13.514,6.411h-34.988c-6.228,0-11.984-3.325-15.106-8.72L91.46,251.087
			c-3.405-5.89-3.068-13.22,0.857-18.78l29.263-41.467c0.808-1.145,1.476-2.376,1.99-3.686L141.016,142.741z"/>
		<path style="fill:#493A35;" d="M370.984,142.741c-2.621-6.674-9.075-11.065-16.24-11.065h-40.689
			c-4.917,0-9.607,2.082-12.914,5.719c-3.306,3.649-4.923,8.524-4.446,13.416l7.893,81.257c0.331,3.429,1.672,6.675,3.846,9.338
			l32.448,39.759c3.313,4.06,8.279,6.411,13.521,6.411h34.983c6.233,0,11.99-3.325,15.106-8.72l16.049-27.769
			c3.405-5.89,3.068-13.22-0.857-18.78l-29.276-41.467c-0.796-1.145-1.464-2.376-1.971-3.686L370.984,142.741z"/>
	</g>
	<rect x="205.231" y="373.524" style="fill:#C4C4C4;" width="101.538" height="10.256"/>
</g>
</svg>