<svg width="42" height="42" viewBox="0 0 42 42" fill="none" xmlns="http://www.w3.org/2000/svg">
<g clip-path="url(#clip0_740_29797)">
<rect width="42" height="42" rx="8" fill="black"/>
<path fill-rule="evenodd" clip-rule="evenodd" d="M19.4059 11.2307C13.0376 11.2307 7.875 16.2931 7.875 22.5382C7.875 28.7831 13.0376 33.8456 19.4059 33.8456C25.7743 33.8456 30.9367 28.7831 30.9367 22.5382C30.9367 16.2931 25.7743 11.2307 19.4059 11.2307ZM19.4059 13.9444C24.2381 13.9444 28.1694 17.7996 28.1694 22.5382C28.1694 27.2766 24.2381 31.1318 19.4059 31.1318C14.5738 31.1318 10.6423 27.2766 10.6423 22.5382C10.6423 17.7996 14.5738 13.9444 19.4059 13.9444Z" fill="white"/>
<path fill-rule="evenodd" clip-rule="evenodd" d="M22.5941 8.1543C16.2259 8.1543 11.0633 13.2167 11.0633 19.4618C11.0633 25.7066 16.2259 30.7692 22.5941 30.7692C28.9626 30.7692 34.125 25.7066 34.125 19.4618C34.125 13.2167 28.9626 8.1543 22.5941 8.1543ZM23.2975 10.868C28.1297 10.868 32.061 14.7231 32.061 19.4618C32.061 24.2002 28.1297 28.0553 23.2975 28.0553C18.4654 28.0553 14.5339 24.2002 14.5339 19.4618C14.5339 14.7231 18.4654 10.868 23.2975 10.868Z" fill="white"/>
</g>
<defs>
<clipPath id="clip0_740_29797">
<rect width="42" height="42" rx="8" fill="white"/>
</clipPath>
</defs>
</svg>
