<svg width="20" height="20" viewBox="0 0 20 20" fill="none" xmlns="http://www.w3.org/2000/svg">
<path d="M8.02359 15C8.17319 15 8.29977 14.9425 8.39758 14.8446L12.9603 10.3855C13.0696 10.2762 13.1272 10.1438 13.1272 10C13.1272 9.8504 13.0696 9.71231 12.9603 9.6145L8.40334 5.1611C8.29977 5.05754 8.17319 5 8.02359 5C7.7244 5 7.5 5.23015 7.5 5.52934C7.5 5.66743 7.55754 5.80552 7.6496 5.90334L11.8383 10L7.6496 14.0967C7.55754 14.1945 7.5 14.3268 7.5 14.4707C7.5 14.7699 7.7244 15 8.02359 15Z" fill="white"/>
</svg>
