<svg width="42" height="42" viewBox="0 0 42 42" fill="none" xmlns="http://www.w3.org/2000/svg">
<rect width="42" height="42" rx="8" fill="black"/>
<g clip-path="url(#clip0_740_29805)">
<path d="M8.93388 20.5003C7.64508 18.337 7.73294 15.7694 8.93388 13.7504C10.1354 15.7694 10.2233 18.337 8.93388 20.5003ZM8.93388 20.5003C7.73294 22.5193 7.64508 25.0868 8.93388 27.2501C10.2233 25.0868 10.1354 22.5193 8.93388 20.5003ZM21.0003 7C19.7994 9.01898 19.7115 11.5865 21.0003 13.7499C22.2891 11.5865 22.2013 9.01898 21.0003 7ZM21.0003 13.7504C19.7994 15.7694 19.7115 18.337 21.0003 20.5003C22.2891 18.337 22.2013 15.7694 21.0003 13.7504ZM21.0003 20.5003C19.7994 22.5193 19.7115 25.0868 21.0003 27.2501C22.2891 25.0868 22.2013 22.5193 21.0003 20.5003ZM21.0003 27.2501C19.7994 29.2691 19.7115 31.8367 21.0003 34C22.2891 31.8367 22.2013 29.2691 21.0003 27.2501ZM33.0662 13.7504C31.8652 15.7694 31.7774 18.337 33.0662 20.5003C34.355 18.337 34.2671 15.7694 33.0662 13.7504ZM33.0662 20.5003C31.8652 22.5193 31.7774 25.0868 33.0662 27.2501C34.355 25.0868 34.2671 22.5193 33.0662 20.5003ZM14.9671 10.3749C16.2565 12.5388 18.595 13.7482 21.0003 13.7499C19.7959 11.7326 17.5453 10.3749 14.9671 10.3749ZM14.9671 10.3749C17.5453 10.3749 19.7959 9.01729 21.0003 7C18.595 7.00169 16.2565 8.21161 14.9671 10.3749ZM14.9671 10.3749C13.6783 12.5388 13.7662 15.1064 14.9671 17.1254C16.1686 15.1064 16.2565 12.5388 14.9671 10.3749ZM8.93447 13.7499C11.3398 13.7482 13.6783 12.5382 14.9671 10.3749C12.3889 10.3749 10.1383 11.7326 8.93447 13.7499ZM27.033 10.3749C28.3224 12.5388 30.6608 13.7482 33.0662 13.7499C31.8618 11.7326 29.6112 10.3749 27.033 10.3749ZM27.033 10.3749C25.7442 12.5388 25.832 15.1064 27.033 17.1254C28.2345 15.1064 28.3224 12.5388 27.033 10.3749ZM21.0003 13.7499C23.4057 13.7482 25.7442 12.5382 27.033 10.3749C24.4548 10.3749 22.2042 11.7326 21.0003 13.7499ZM21.0003 7C22.2042 9.01729 24.4554 10.3749 27.033 10.3749C25.7442 8.21161 23.4057 7.00169 21.0003 7ZM14.9671 17.1248C16.2565 19.2887 18.595 20.498 21.0003 20.4997C19.7959 18.4824 17.5453 17.1248 14.9671 17.1248ZM14.9671 17.1248C17.5453 17.1248 19.7959 15.7671 21.0003 13.7499C18.595 13.7516 16.2565 14.9615 14.9671 17.1248ZM14.9671 17.1248C13.6783 19.2887 13.7662 21.8562 14.9671 23.8752C16.1686 21.8562 16.2565 19.2887 14.9671 17.1248ZM8.93447 20.5003C11.3398 20.4986 13.6783 19.2887 14.9671 17.1254C12.3889 17.1248 10.1383 18.4824 8.93447 20.5003ZM8.93447 13.7499C10.1383 15.7671 12.3895 17.1248 14.9671 17.1248C13.6783 14.9615 11.3393 13.7516 8.93447 13.7499ZM27.033 17.1248C28.3224 19.2887 30.6608 20.498 33.0662 20.4997C31.8618 18.4824 29.6112 17.1248 27.033 17.1248ZM27.033 17.1248C29.6112 17.1248 31.8618 15.7671 33.0662 13.7499C30.6608 13.7516 28.3224 14.9615 27.033 17.1248ZM27.033 17.1248C25.7442 19.2887 25.832 21.8562 27.033 23.8752C28.2345 21.8562 28.3224 19.2887 27.033 17.1248ZM21.0003 20.5003C23.4057 20.4986 25.7442 19.2887 27.033 17.1254C24.4548 17.1248 22.2042 18.4824 21.0003 20.5003ZM21.0003 13.7499C22.2042 15.7671 24.4554 17.1248 27.033 17.1248C25.7442 14.9615 23.4057 13.7516 21.0003 13.7499ZM14.9671 23.8752C16.2565 26.0391 18.595 27.2484 21.0003 27.2501C19.7959 25.2329 17.5453 23.8752 14.9671 23.8752ZM14.9671 23.8752C17.5453 23.8752 19.7959 22.5176 21.0003 20.5003C18.595 20.502 16.2565 21.7113 14.9671 23.8752ZM14.9671 23.8752C13.6783 26.0391 13.7662 28.6067 14.9671 30.6256C16.1686 28.6061 16.2565 26.0385 14.9671 23.8752ZM8.93447 27.2501C11.3398 27.2484 13.6783 26.0385 14.9671 23.8752C12.3889 23.8752 10.1383 25.2329 8.93447 27.2501ZM8.93447 20.5003C10.1383 22.5176 12.3895 23.8752 14.9671 23.8752C13.6783 21.7113 11.3393 20.502 8.93447 20.5003ZM27.033 23.8752C28.3224 26.0391 30.6608 27.2484 33.0662 27.2501C31.8618 25.2329 29.6112 23.8752 27.033 23.8752ZM27.033 23.8752C29.6112 23.8752 31.8618 22.5176 33.0662 20.5003C30.6608 20.502 28.3224 21.7113 27.033 23.8752ZM27.033 23.8752C25.7442 26.0391 25.832 28.6067 27.033 30.6256C28.2345 28.6061 28.3224 26.0385 27.033 23.8752ZM21.0003 27.2501C23.4057 27.2484 25.7442 26.0385 27.033 23.8752C24.4548 23.8752 22.2042 25.2329 21.0003 27.2501ZM21.0003 20.5003C22.2042 22.5176 24.4554 23.8752 27.033 23.8752C25.7442 21.7113 23.4057 20.502 21.0003 20.5003ZM14.9671 30.6251C16.2565 32.7889 18.595 33.9983 21.0003 34C19.7959 31.9827 17.5453 30.6251 14.9671 30.6251ZM14.9671 30.6251C17.5453 30.6251 19.7959 29.2674 21.0003 27.2501C18.595 27.2518 16.2565 28.4618 14.9671 30.6251ZM8.93447 27.2501C10.1383 29.2674 12.3895 30.6251 14.9671 30.6251C13.6783 28.4618 11.3393 27.2518 8.93447 27.2501ZM27.033 30.6251C29.6112 30.6251 31.8618 29.2674 33.0662 27.2501C30.6608 27.2518 28.3224 28.4618 27.033 30.6251ZM21.0003 34C23.4057 33.9983 25.7442 32.7884 27.033 30.6251C24.4548 30.6251 22.2042 31.9827 21.0003 34ZM21.0003 27.2501C22.2042 29.2674 24.4554 30.6251 27.033 30.6251C25.7442 28.4618 23.4057 27.2518 21.0003 27.2501Z" fill="white"/>
</g>
<defs>
<clipPath id="clip0_740_29805">
<rect width="26" height="27" fill="white" transform="translate(8 7)"/>
</clipPath>
</defs>
</svg>
