<svg width="42" height="42" viewBox="0 0 42 42" fill="none" xmlns="http://www.w3.org/2000/svg">
<g clip-path="url(#clip0_740_29821)">
<rect width="42" height="42" rx="8" fill="black"/>
<rect width="42.054" height="42.054" fill="black"/>
<path d="M23.9167 17.25L26.8333 14.3333M28.5 12.6666L26.8333 14.3333L28.5 12.6666ZM20.4917 20.675C20.9219 21.0995 21.264 21.605 21.4981 22.1623C21.7322 22.7196 21.8538 23.3177 21.8558 23.9222C21.8579 24.5266 21.7403 25.1255 21.5099 25.6844C21.2795 26.2432 20.9409 26.751 20.5134 27.1784C20.086 27.6058 19.5783 27.9445 19.0194 28.1749C18.4606 28.4053 17.8617 28.5228 17.2572 28.5208C16.6527 28.5188 16.0546 28.3972 15.4973 28.1631C14.94 27.929 14.4345 27.5869 14.01 27.1566C13.1751 26.2922 12.7131 25.1344 12.7236 23.9327C12.734 22.731 13.216 21.5814 14.0658 20.7316C14.9156 19.8818 16.0652 19.3998 17.2669 19.3894C18.4686 19.3789 19.6264 19.8409 20.4908 20.6758L20.4917 20.675ZM20.4917 20.675L23.9167 17.25L20.4917 20.675ZM23.9167 17.25L26.4167 19.75L29.3333 16.8333L26.8333 14.3333L23.9167 17.25Z" stroke="white" stroke-width="1.66667" stroke-linecap="round" stroke-linejoin="round"/>
</g>
<defs>
<clipPath id="clip0_740_29821">
<rect width="42" height="42" rx="8" fill="white"/>
</clipPath>
</defs>
</svg>
