<svg width="32" height="38" viewBox="0 0 32 38" fill="none" xmlns="http://www.w3.org/2000/svg">
<g filter="url(#filter0_dd_1_16164)">
<path fill-rule="evenodd" clip-rule="evenodd" d="M22.4115 6.63134C23.1299 5.9234 23.9939 5.38055 24.9435 5.04059C23.5067 5.55688 22.2803 6.53255 21.4542 7.81648C21.568 7.99228 21.6735 8.17271 21.7706 8.35777C22.2881 9.3442 22.5605 10.4407 22.5649 11.5546C22.5692 12.6685 22.3054 13.7671 21.7956 14.7576C22.2783 15.2666 22.7149 15.8175 23.1003 16.4037C23.348 16.7787 23.5741 17.1675 23.7776 17.5682C23.9145 17.8402 24.0408 18.115 24.1565 18.3926C24.2245 18.555 24.2883 18.7201 24.3494 18.8867C24.4341 18.7854 24.5174 18.6827 24.5979 18.5786C24.7172 18.4273 24.8338 18.2691 24.9435 18.1136C25.0531 17.9582 25.1586 17.7986 25.2613 17.6362C26.4041 15.8229 27.0091 13.7226 27.0059 11.5792C27.0099 9.43439 26.4049 7.33253 25.2613 5.51804C25.1586 5.35565 25.0531 5.19604 24.9435 5.04059C24.8324 4.88653 24.7172 4.73108 24.5992 4.57702C23.8793 3.65345 23.022 2.84767 22.0585 2.18714C21.6947 1.93774 21.2164 1.93761 20.8525 2.18681C19.4606 3.1399 18.2953 4.39237 17.4443 5.85579C16.473 7.5259 15.9428 9.41578 15.9038 11.3474V11.5764V11.9192C17.4734 12.3127 18.9405 13.0377 20.2064 14.0456C20.5652 14.3299 20.9059 14.6363 21.2265 14.963C20.734 14.0828 20.4393 13.1059 20.3629 12.1002C20.2864 11.0945 20.4301 10.0843 20.7839 9.13979C21.1377 8.1953 21.6931 7.33928 22.4115 6.63134ZM16.6325 16.9769C15.7425 16.4557 14.7475 16.1394 13.7199 16.051C12.6937 15.9628 11.6608 16.1041 10.6961 16.4646C10.834 16.605 10.9962 16.7533 11.1543 16.8867C12.0084 17.6067 13.0238 18.1099 14.114 18.3535C15.2043 18.597 16.3373 18.5738 17.4166 18.2857C17.4332 18.2824 17.4494 18.2777 17.4652 18.2718C18.6053 19.3231 19.3224 20.7543 19.4819 22.2969L19.4764 22.2913C17.459 23.015 15.2783 23.1548 13.1851 22.6947C11.0918 22.2346 9.17076 21.1932 7.64276 19.6903C7.50397 19.5515 7.3735 19.4127 7.24442 19.2739C7.11534 19.1351 6.98626 18.9866 6.86412 18.8381C6.11486 17.9371 5.51077 16.9265 5.07223 15.8429C4.90706 15.4348 5.00906 14.9685 5.32944 14.6665C6.32239 13.7306 7.47706 12.9794 8.73923 12.4508L8.74041 12.46C10.83 11.5918 13.1303 11.363 15.35 11.8026C15.3752 13.2938 15.6818 14.7667 16.2536 16.1441C16.3692 16.4217 16.4955 16.6993 16.6325 16.9769ZM24.5063 23.1893V22.9603C24.5063 22.8451 24.5049 22.7313 24.4952 22.6175C24.4631 21.5093 24.2686 20.4117 23.9178 19.36C23.759 18.8806 23.5675 18.4127 23.3446 17.9596C23.144 17.5476 22.9173 17.1489 22.6658 16.7659C22.3219 16.2322 21.9322 15.7292 21.5014 15.2628C21.4125 15.1629 21.3195 15.0643 21.2238 14.9685C20.9031 14.6419 20.5624 14.3355 20.2036 14.0511C18.9377 13.0433 17.4706 12.3183 15.901 11.9248C15.9465 13.5413 16.3384 15.1292 17.0502 16.5813C17.2513 16.9934 17.478 17.3926 17.7289 17.7763C17.84 17.8735 17.9468 17.9748 18.0496 18.0803C18.4892 18.5244 18.8669 19.0258 19.1724 19.571C19.3987 19.9678 19.5846 20.3862 19.7276 20.8201C19.9526 21.5111 20.0665 22.2335 20.0648 22.9603C20.065 24.3107 19.6711 25.6318 18.9315 26.7617C18.1919 27.8916 17.1387 28.7811 15.901 29.3212V34C18.3226 33.3915 20.4769 32.0035 22.0319 30.05C23.587 28.0964 24.4564 25.6857 24.5063 23.1893Z" fill="white"/>
</g>
<defs>
<filter id="filter0_dd_1_16164" x="-3" y="0" width="38" height="38" filterUnits="userSpaceOnUse" color-interpolation-filters="sRGB">
<feFlood flood-opacity="0" result="BackgroundImageFix"/>
<feColorMatrix in="SourceAlpha" type="matrix" values="0 0 0 0 0 0 0 0 0 0 0 0 0 0 0 0 0 0 127 0" result="hardAlpha"/>
<feOffset dy="1"/>
<feGaussianBlur stdDeviation="1"/>
<feColorMatrix type="matrix" values="0 0 0 0 0.0627451 0 0 0 0 0.0941176 0 0 0 0 0.156863 0 0 0 0.06 0"/>
<feBlend mode="normal" in2="BackgroundImageFix" result="effect1_dropShadow_1_16164"/>
<feColorMatrix in="SourceAlpha" type="matrix" values="0 0 0 0 0 0 0 0 0 0 0 0 0 0 0 0 0 0 127 0" result="hardAlpha"/>
<feOffset dy="1"/>
<feGaussianBlur stdDeviation="1.5"/>
<feColorMatrix type="matrix" values="0 0 0 0 0.0627451 0 0 0 0 0.0941176 0 0 0 0 0.156863 0 0 0 0.1 0"/>
<feBlend mode="normal" in2="effect1_dropShadow_1_16164" result="effect2_dropShadow_1_16164"/>
<feBlend mode="normal" in="SourceGraphic" in2="effect2_dropShadow_1_16164" result="shape"/>
</filter>
</defs>
</svg>
